<svg xmlns="http://www.w3.org/2000/svg" xmlns:xlink="http://www.w3.org/1999/xlink" width="24" height="24" version="1.1" viewBox="0 0 24 24"><title>ic-mouse-click</title><desc>Created with Sketch.</desc><g fill="none" fill-rule="evenodd" stroke="none" stroke-width="1"><g><g><g><g transform="translate(-601.000000, -248.000000) translate(585.000000, 77.000000) translate(16.000000, 171.000000)"><rect width="24" height="24" x="0" y="0"/><polygon fill="#5A5A5A" points="16.384 16.851 14.667 21 11 10 22 13.667 17.851 15.384 21.267 18.8 19.8 20.267"/><path fill="#5A5A5A" d="M18,11 C18,7.6862915 15.3137085,5 12,5 C8.6862915,5 6,7.6862915 6,11 C6,14.3137085 8.6862915,17 12,17 C15.3137085,17 18,14.3137085 18,11 Z M5,11 C5,7.13400675 8.13400675,4 12,4 C15.8659932,4 19,7.13400675 19,11 C19,14.8659932 15.8659932,18 12,18 C8.13400675,18 5,14.8659932 5,11 Z"/></g></g></g></g></g></svg>