<svg xmlns="http://www.w3.org/2000/svg" xmlns:xlink="http://www.w3.org/1999/xlink" width="24" height="24" version="1.1" viewBox="0 0 24 24"><title>ic-mic</title><desc>Created with Sketch.</desc><g fill="none" fill-rule="evenodd" stroke="none" stroke-width="1"><g><g><g><g transform="translate(-601.000000, -161.000000) translate(585.000000, 77.000000) translate(16.000000, 84.000000)"><rect width="24" height="24" x="0" y="0"/><rect width="8" height="2" x="8" y="21" fill="#5A5A5A" rx="1"/><rect width="2" height="3" x="11" y="19" fill="#5A5A5A"/><path fill="#5A5A5A" d="M7,5.99502908 C7,3.23635069 9.24419519,1 12,1 C14.7614237,1 17,3.23382212 17,5.99502908 L17,10.0049709 C17,12.7636493 14.7558048,15 12,15 C9.23857625,15 7,12.7661779 7,10.0049709 L7,5.99502908 Z M8,5.99582624 C8,3.78899235 9.79535615,2 12,2 C14.209139,2 16,3.79652125 16,5.99582624 L16,10.0041738 C16,12.2110077 14.2046438,14 12,14 C9.790861,14 8,12.2034788 8,10.0041738 L8,5.99582624 Z"/><path fill="#5A5A5A" d="M5,7.99500741 L4,7.99422735 L4,9.05010099 L4,10.9921619 C4,15.4219154 7.581722,19 12,19 C16.4092877,19 20,15.4210632 20,11.0062208 L20,9.125698 L20,8.0067083 L19,8.0067083 L19,9.125698 L19,11.0062208 C19,14.8653301 15.8604555,18 12,18 C8.13162059,18 5,14.8672436 5,10.9921619 L5,9.05010099 L5,7.99500741 Z"/></g></g></g></g></g></svg>