<svg xmlns="http://www.w3.org/2000/svg" xmlns:xlink="http://www.w3.org/1999/xlink" width="16" height="16" version="1.1" viewBox="0 0 16 16"><title>ic-attention</title><desc>Created with Sketch.</desc><g id="edit-panels" fill="none" fill-rule="evenodd" stroke="none" stroke-width="1"><g id="main-edit-panel" transform="translate(-231.000000, -140.000000)"><g id="video-panel-small-v-1" transform="translate(55.000000, 124.000000)"><g id="icons" transform="translate(17.000000, 16.000000)"><g id="ic-attention"><g transform="translate(159.000000, 0.000000)"><rect id="bounds" width="16" height="16" x="0" y="0"/><path id="Combined-Shape" fill="#5A5A5A" d="M8,16 C3.581722,16 0,12.418278 0,8 C0,3.581722 3.581722,0 8,0 C12.418278,0 16,3.581722 16,8 C16,12.418278 12.418278,16 8,16 Z M7,2 L7,9 L9,9 L9,2 L7,2 Z M8,13 C8.55228475,13 9,12.5522847 9,12 C9,11.4477153 8.55228475,11 8,11 C7.44771525,11 7,11.4477153 7,12 C7,12.5522847 7.44771525,13 8,13 Z"/></g></g></g></g></g></g></svg>