<svg xmlns="http://www.w3.org/2000/svg" xmlns:xlink="http://www.w3.org/1999/xlink" width="16" height="16" version="1.1" viewBox="0 0 16 16"><title>radio-off</title><desc>Created with Sketch.</desc><g id="edit-panels" fill="none" fill-rule="evenodd" stroke="none" stroke-width="1"><g id="main-edit-panel" transform="translate(-157.000000, -802.000000)"><g id="tab" transform="translate(58.000000, 427.000000)"><g id="radio-off"><g transform="translate(99.000000, 375.000000)"><path id="Oval-1" fill="#D1D1D1" fill-rule="nonzero" d="M14,8 C14,4.6862915 11.3137085,2 8,2 C4.6862915,2 2,4.6862915 2,8 C2,11.3137085 4.6862915,14 8,14 C11.3137085,14 14,11.3137085 14,8 Z M1,8 C1,4.13400675 4.13400675,1 8,1 C11.8659932,1 15,4.13400675 15,8 C15,11.8659932 11.8659932,15 8,15 C4.13400675,15 1,11.8659932 1,8 Z"/><rect id="bounds" width="16" height="16" x="0" y="0"/></g></g></g></g></g></svg>