<svg xmlns="http://www.w3.org/2000/svg" xmlns:xlink="http://www.w3.org/1999/xlink" width="16" height="16" version="1.1" viewBox="0 0 16 16"><title>ic-elipse</title><desc>Created with Sketch.</desc><g fill="none" fill-rule="evenodd" stroke="none" stroke-width="1"><g><g><g><g transform="translate(-216.000000, -523.000000) translate(204.000000, 427.000000) translate(12.000000, 96.000000)"><rect width="16" height="16" x="0" y="0"/><path fill="#5A5A5A" d="M8,14 C12.418278,14 16,11.3137085 16,8 C16,4.6862915 12.418278,2 8,2 C3.581722,2 0,4.6862915 0,8 C0,11.3137085 3.581722,14 8,14 Z M8,12 C11.3137085,12 14,10.209139 14,8 C14,5.790861 11.3137085,4 8,4 C4.6862915,4 2,5.790861 2,8 C2,10.209139 4.6862915,12 8,12 Z"/></g></g></g></g></g></svg>