<svg xmlns="http://www.w3.org/2000/svg" xmlns:xlink="http://www.w3.org/1999/xlink" width="16" height="16" version="1.1" viewBox="0 0 16 16"><title>ic-note-text</title><desc>Created with Sketch.</desc><g fill="none" fill-rule="evenodd" stroke="none" stroke-width="1"><g><g><g><g transform="translate(-343.000000, -464.000000) translate(331.000000, 424.000000) translate(12.000000, 40.000000)"><rect width="16" height="16" x="0" y="0"/><path fill="#5A5A5A" d="M0,1 L16,1 L16,12 L0,12 L0,1 Z M1,15 L5.5,12 L2.5,12 L1,15 Z M12.5,5 L13,5 L13,4 L12.5,4 L3.5,4 L3,4 L3,5 L3.5,5 L12.5,5 Z M12.5,7 L13,7 L13,6 L12.5,6 L3.5,6 L3,6 L3,7 L3.5,7 L12.5,7 Z M6.5,9 L7,9 L7,8 L6.5,8 L3.5,8 L3,8 L3,9 L3.5,9 L6.5,9 Z"/></g></g></g></g></g></svg>