<svg xmlns="http://www.w3.org/2000/svg" xmlns:xlink="http://www.w3.org/1999/xlink" width="16" height="16" version="1.1" viewBox="0 0 16 16"><title>ic-unlock</title><desc>Created with Sketch.</desc><g fill="none" fill-rule="evenodd" stroke="none" stroke-width="1"><g><g><g><g><g transform="translate(-919.000000, -38.000000) translate(33.000000, 26.000000) translate(12.000000, 12.000000) translate(874.000000, 0.000000)"><rect width="16" height="16" x="0" y="0"/><rect width="12" height="9" x="2" y="7" fill="#5A5A5A"/><path fill="#5A5A5A" d="M3.99973379,1.9998669 C4.91194626,0.785495901 6.36424193,0 8,0 C10.7614237,0 13,2.23857625 13,5 C13,7.76142375 10.7614237,10 8,10 C5.96586218,10 4.21543112,8.785307 3.43449591,7.04171011 L5.80193362,7.04171011 C6.34973914,7.63119761 7.13180036,8 8,8 C9.65685425,8 11,6.65685425 11,5 C11,3.34314575 9.65685425,2 8,2 C7.15106659,2 6.38449101,2.35261582 5.83874714,2.91937357 L3.99973379,1.9998669 Z"/></g></g></g></g></g></g></svg>