<svg xmlns="http://www.w3.org/2000/svg" xmlns:xlink="http://www.w3.org/1999/xlink" width="16" height="16" version="1.1" viewBox="0 0 16 16"><title>ic-zoom-in</title><desc>Created with Sketch.</desc><g fill="none" fill-rule="evenodd" stroke="none" stroke-width="1"><g><g><g><g><g transform="translate(-45.000000, -38.000000) translate(33.000000, 26.000000) translate(12.000000, 12.000000)"><rect width="16" height="16" x="0" y="0"/><path fill="#5A5A5A" d="M13,8 C13,5.23857625 10.7614237,3 8,3 C5.23857625,3 3,5.23857625 3,8 C3,10.7614237 5.23857625,13 8,13 C10.7614237,13 13,10.7614237 13,8 Z M1,8 C1,4.13400675 4.13400675,1 8,1 C11.8659932,1 15,4.13400675 15,8 C15,11.8659932 11.8659932,15 8,15 C4.13400675,15 1,11.8659932 1,8 Z"/><polygon fill="#5A5A5A" points="14.293 15.707 15.707 14.293 12.707 11.293 11.293 12.707"/><rect width="2" height="6" x="7" y="5" fill="#5A5A5A"/><rect width="2" height="6" x="7" y="5" fill="#5A5A5A" transform="translate(8.000000, 8.000000) rotate(90.000000) translate(-8.000000, -8.000000)"/></g></g></g></g></g></g></svg>