<svg xmlns="http://www.w3.org/2000/svg" xmlns:xlink="http://www.w3.org/1999/xlink" width="16" height="16" version="1.1" viewBox="0 0 16 16"><title>ic-attention</title><desc>Created with Sketch.</desc><defs><path id="path-1" d="M8,16 C12.418278,16 16,12.418278 16,8 C16,3.581722 12.418278,0 8,0 C3.581722,0 0,3.581722 0,8 C0,12.418278 3.581722,16 8,16 Z M7,2 L9,2 L9,9 L7,9 L7,2 Z M8,13 C8.55228475,13 9,12.5522847 9,12 C9,11.4477153 8.55228475,11 8,11 C7.44771525,11 7,11.4477153 7,12 C7,12.5522847 7.44771525,13 8,13 Z"/><filter id="filter-2" width="200%" height="200%" x="-50%" y="-50%" filterUnits="objectBoundingBox"><feGaussianBlur in="SourceAlpha" result="shadowBlurInner1" stdDeviation="1.5"/><feOffset dx="0" dy="1" in="shadowBlurInner1" result="shadowOffsetInner1"/><feComposite in="shadowOffsetInner1" in2="SourceAlpha" k2="-1" k3="1" operator="arithmetic" result="shadowInnerInner1"/><feColorMatrix in="shadowInnerInner1" type="matrix" values="0 0 0 0 0 0 0 0 0 0 0 0 0 0 0 0 0 0 0.5 0"/></filter></defs><g id="icons" fill="none" fill-rule="evenodd" stroke="none" stroke-width="1"><g id="ic-attention"><g transform="translate(-172.000000, -39.000000) translate(172.000000, 39.000000)"><rect id="bounds" width="16" height="16" x="0" y="0"/><g id="Combined-Shape"><use fill="#6D6C6D" fill-rule="evenodd" xlink:href="#path-1"/><use fill="#000" fill-opacity="1" filter="url(#filter-2)" xlink:href="#path-1"/></g></g></g></g></svg>