<svg xmlns="http://www.w3.org/2000/svg" xmlns:xlink="http://www.w3.org/1999/xlink" width="22" height="21" version="1.1" viewBox="0 0 22 21"><title>ic-delayed-screenshot</title><desc>Created with Sketch.</desc><defs><path id="path-1" d="M12,9 L12,5 L10,5 L10,10 L10,11 L15,11 L15,9 L12,9 Z M12,20 L12,17 L10,17 L10,20 L6,20 L6,21 L16,21 L16,20 L12,20 Z M0,0 L22,0 L22,17 L0,17 L0,0 Z M3,3 L19,3 L19,14 L3,14 L3,3 Z"/><filter id="filter-2" width="200%" height="200%" x="-50%" y="-50%" filterUnits="objectBoundingBox"><feGaussianBlur in="SourceAlpha" result="shadowBlurInner1" stdDeviation="1"/><feOffset dx="0" dy="1" in="shadowBlurInner1" result="shadowOffsetInner1"/><feComposite in="shadowOffsetInner1" in2="SourceAlpha" k2="-1" k3="1" operator="arithmetic" result="shadowInnerInner1"/><feColorMatrix in="shadowInnerInner1" type="matrix" values="0 0 0 0 0 0 0 0 0 0 0 0 0 0 0 0 0 0 0.5 0"/></filter></defs><g id="icons" fill="none" fill-rule="evenodd" stroke="none" stroke-width="1"><g id="delayed_screenshot"><g transform="translate(-30.000000, -113.000000) translate(30.000000, 113.000000)"><g id="Combined-Shape"><use fill="#7A7A7A" fill-rule="evenodd" xlink:href="#path-1"/><use fill="#000" fill-opacity="1" filter="url(#filter-2)" xlink:href="#path-1"/></g></g></g></g></svg>