<svg xmlns="http://www.w3.org/2000/svg" xmlns:xlink="http://www.w3.org/1999/xlink" width="24" height="24" version="1.1" viewBox="0 0 24 24"><title>ic-lock-24</title><desc>Created with Sketch.</desc><g id="Symbols" fill="none" fill-rule="evenodd" stroke="none" stroke-width="1"><g id="ic-lock-24"><g><rect id="Rectangle" width="24" height="24" x="0" y="0"/><rect id="Rectangle-3" width="20" height="14" x="2" y="8" fill="#5A5A5A" rx="2"/><rect id="Rectangle-4" width="18" height="12" x="3" y="9" fill="#FFF" rx="1"/><rect id="Rectangle-5" width="16" height="3" x="4" y="17" fill="#D1D1D1" rx="1"/><circle id="Oval" cx="12" cy="16" r="2" fill="#5A5A5A"/><path id="Oval-3" fill="#5A5A5A" fill-rule="nonzero" d="M15.7932743,5.77360682 C15.2861087,3.99070889 14.1542837,3 12.0058468,3 C9.85684866,3 8.7225006,3.99146764 8.21214866,5.77509232 C8.00515578,6.49851 7.92689929,7.27168621 7.93631352,8 L16.065295,8 C16.0760562,7.27081119 15.9990959,6.49715531 15.7932743,5.77360682 Z M17,9 L7,9 C7,9 6,2 12.0058468,2 C18.0116936,2 17,9 17,9 Z"/></g></g></g></svg>