<svg xmlns="http://www.w3.org/2000/svg" xmlns:xlink="http://www.w3.org/1999/xlink" width="16" height="16" version="1.1" viewBox="0 0 16 16"><title>ic-marker</title><desc>Created with Sketch.</desc><defs><path id="path-1" d="M13.4999878,2.27765126e-05 C14.4469171,2.27765126e-05 15.3125742,0.53502628 15.7360538,1.38198249 C16.1595335,2.22893871 16.0681436,3.24246389 15.499986,4.00000456 L14.4999869,5 L10.9999901,1.49501597 L11.9999892,0.495020522 C12.4329479,0.171470424 12.9594942,-0.00228921751 13.4999878,2.27765126e-05 L13.4999878,2.27765126e-05 Z M7.10542736e-15,8.92817671 L7.10542736e-15,16 L6.87199403,16 L13.7236185,6.18279834 L10.4620628,2.79023309 L7.10542736e-15,8.92817671 Z"/><filter id="filter-2" width="200%" height="200%" x="-50%" y="-50%" filterUnits="objectBoundingBox"><feGaussianBlur in="SourceAlpha" result="shadowBlurInner1" stdDeviation="1.5"/><feOffset dx="0" dy="1" in="shadowBlurInner1" result="shadowOffsetInner1"/><feComposite in="shadowOffsetInner1" in2="SourceAlpha" k2="-1" k3="1" operator="arithmetic" result="shadowInnerInner1"/><feColorMatrix in="shadowInnerInner1" type="matrix" values="0 0 0 0 0 0 0 0 0 0 0 0 0 0 0 0 0 0 0.5 0"/></filter></defs><g id="icons" fill="none" fill-rule="evenodd" stroke="none" stroke-width="1"><g id="ic-marker"><g transform="translate(-243.000000, -74.000000) translate(243.000000, 74.000000)"><rect id="bounds" width="16" height="16" x="0" y="0"/><polygon id="Rectangle" fill="#FFFB56" fill-rule="evenodd" points=".949 14.046 16 11 12.999 15.984 2.147 15.984"/><g id="pen_copy" transform="translate(8.000000, 8.000000) scale(-1, -1) translate(-8.000000, -8.000000)"><use fill="#6D6C6D" fill-rule="evenodd" xlink:href="#path-1"/><use fill="#000" fill-opacity="1" filter="url(#filter-2)" xlink:href="#path-1"/></g></g></g></g></svg>