<svg xmlns="http://www.w3.org/2000/svg" xmlns:xlink="http://www.w3.org/1999/xlink" width="24" height="24" version="1.1" viewBox="0 0 24 24"><title>ic-organize-24</title><desc>Created with Sketch.</desc><defs><rect id="path-1" width="9" height="9" x="2" y="7" rx="2"/><rect id="path-2" width="7" height="7" x="15" y="0" rx="2"/><rect id="path-3" width="7" height="7" x="15" y="8" rx="2"/><rect id="path-4" width="7" height="7" x="15" y="16" rx="2"/></defs><g id="Symbols" fill="none" fill-rule="evenodd" stroke="none" stroke-width="1"><g id="ic-organize-24"><g><rect id="Rectangle" width="24" height="24" x="0" y="0"/><g id="Rectangle-2"><use fill="#FFF" fill-rule="evenodd" xlink:href="#path-1"/><rect width="8" height="8" x="2.5" y="7.5" stroke="#5A5A5A" stroke-width="1" rx="2"/></g><g id="Rectangle-2"><use fill="#D1D1D1" fill-rule="evenodd" xlink:href="#path-2"/><rect width="6" height="6" x="15.5" y=".5" stroke="#5A5A5A" stroke-width="1" rx="2"/></g><g id="Rectangle-2"><use fill="#D1D1D1" fill-rule="evenodd" xlink:href="#path-3"/><rect width="6" height="6" x="15.5" y="8.5" stroke="#5A5A5A" stroke-width="1" rx="2"/></g><g id="Rectangle-2"><use fill="#D1D1D1" fill-rule="evenodd" xlink:href="#path-4"/><rect width="6" height="6" x="15.5" y="16.5" stroke="#5A5A5A" stroke-width="1" rx="2"/></g><rect id="Rectangle-6" width="1" height="16" x="12" y="4" fill="#5A5A5A"/><rect id="Rectangle-7" width="2" height="1" x="12" y="4" fill="#5A5A5A"/><rect id="Rectangle-7" width="2" height="1" x="12" y="19" fill="#5A5A5A"/><rect id="Rectangle-7" width="2" height="1" x="12" y="11" fill="#5A5A5A"/></g></g></g></svg>