<svg xmlns="http://www.w3.org/2000/svg" xmlns:xlink="http://www.w3.org/1999/xlink" width="16" height="16" version="1.1" viewBox="0 0 16 16"><title>ic-pencil</title><desc>Created with Sketch.</desc><defs><path id="path-1" d="M13.5,0.005 C14.4469301,0.005 15.3125879,0.540005941 15.736068,1.38696601 C16.159548,2.23392608 16.0681581,3.24745588 15.5,4.005 L14.5,5.005 L11,1.5 L12,0.5 C12.4329591,0.176448429 12.9595059,0.00268799544 13.5,0.005 L13.5,0.005 Z M1,11.5 L0,16 L4.5,15 L13.744,5.756 L10.244,2.256 L1,11.5 Z M11.175,5.685 L4.175,12.685 L3.314,11.824 L10.314,4.824 L11.175,5.685 Z"/><filter id="filter-2" width="200%" height="200%" x="-50%" y="-50%" filterUnits="objectBoundingBox"><feGaussianBlur in="SourceAlpha" result="shadowBlurInner1" stdDeviation="1.5"/><feOffset dx="0" dy="1" in="shadowBlurInner1" result="shadowOffsetInner1"/><feComposite in="shadowOffsetInner1" in2="SourceAlpha" k2="-1" k3="1" operator="arithmetic" result="shadowInnerInner1"/><feColorMatrix in="shadowInnerInner1" type="matrix" values="0 0 0 0 0 0 0 0 0 0 0 0 0 0 0 0 0 0 0.5 0"/></filter></defs><g id="icons" fill="none" fill-rule="evenodd" stroke="none" stroke-width="1"><g id="ic-pencil"><g transform="translate(-98.000000, -39.000000) translate(98.000000, 39.000000)"><rect id="bounds" width="16" height="16" x="0" y="0"/><g id="pen_copy"><use fill="#6D6C6D" fill-rule="evenodd" xlink:href="#path-1"/><use fill="#000" fill-opacity="1" filter="url(#filter-2)" xlink:href="#path-1"/></g></g></g></g></svg>