<svg xmlns="http://www.w3.org/2000/svg" xmlns:xlink="http://www.w3.org/1999/xlink" width="24" height="24" version="1.1" viewBox="0 0 24 24"><title>ic-record-video-24</title><desc>Created with Sketch.</desc><g fill="none" fill-rule="evenodd" stroke="none" stroke-width="1"><g><g><g><g><g transform="translate(-65.000000, -480.000000) translate(41.000000, 69.000000) translate(12.000000, 405.000000) translate(12.000000, 6.000000)"><rect width="24" height="24" x="0" y="0"/><path fill="#5A5A5A" d="M20.3487034,6.2967143 C21.2606893,5.67395694 22,6.06519743 22,7.16960828 L22,16.8257866 C22,17.93063 21.2646761,18.3241604 20.3487034,17.6986806 L12,11.9976975 L20.3487034,6.2967143 Z"/><path fill="#FFF" d="M20.1554582,8.13233356 C20.6218858,7.83938184 21,8.05012988 21,8.61078592 L21,15.3879223 C21,15.945116 20.6235701,16.1603843 20.1554582,15.8663747 L14.843064,12.5297901 C14.3766365,12.2368384 14.3749521,11.7629278 14.843064,11.4689181 L20.1554582,8.13233356 Z"/><rect width="16" height="16" x="2" y="4" fill="#5A5A5A" rx="2"/><rect width="14" height="14" x="3" y="5" fill="#FFF" rx="1"/></g></g></g></g></g></g></svg>