<svg xmlns="http://www.w3.org/2000/svg" xmlns:xlink="http://www.w3.org/1999/xlink" width="22" height="21" version="1.1" viewBox="0 0 22 21"><title>ic-save-video</title><desc>Created with Sketch.</desc><g id="Symbols" fill="none" fill-rule="evenodd" stroke="none" stroke-width="1"><g id="ic-save-video"><rect id="Rectangle-17" width="22" height="21" x="0" y="0"/><path id="Combined-Shape" fill="#5A5A5A" d="M22,3 L22,18 L16.0126843,14 L16.0126843,7 L22,3 Z M20,7 L17,9 L17,12 L20,14 L20,7 Z"/><path id="Combined-Shape" fill="#5A5A5A" d="M0,2 L17,2 L17,19 L0,19 L0,2 Z M2,4 L2,17 L15,17 L15,4 L2,4 Z"/><path id="Combined-Shape" fill="#5A5A5A" d="M9,11 L9,6 L7,6 L7,11 L4,11 L8,15 L12,11 L9,11 Z"/></g></g></svg>