<svg xmlns="http://www.w3.org/2000/svg" xmlns:xlink="http://www.w3.org/1999/xlink" width="24" height="24" version="1.1" viewBox="0 0 24 24"><title>ic-selected-area-24</title><desc>Created with Sketch.</desc><g fill="none" fill-rule="evenodd" stroke="none" stroke-width="1"><g><g><g><g><g transform="translate(-65.000000, -216.000000) translate(41.000000, 69.000000) translate(12.000000, 141.000000) translate(12.000000, 6.000000)"><rect width="24" height="24" x="0" y="0"/><rect width="20" height="16" x="2" y="4" fill="#5A5A5A" rx="2"/><rect width="18" height="14" x="3" y="5" fill="#FFF" rx="1"/><polygon fill="#5A5A5A" points="8 9 10 9 10 8 7.5 8 7 8 7 11 8 11"/><polygon fill="#5A5A5A" points="7.5 16 10 16 10 15 8 15 8 13 7 13 7 16"/><polygon fill="#5A5A5A" points="17 8.5 17 11 16 11 16 9 14 9 14 8 17 8"/><polygon fill="#5A5A5A" points="16.5 16 14 16 14 15 16 15 16 13 17 13 17 16"/></g></g></g></g></g></g></svg>