<svg xmlns="http://www.w3.org/2000/svg" xmlns:xlink="http://www.w3.org/1999/xlink" width="16" height="16" version="1.1" viewBox="0 0 16 16"><title>4E374650-4247-494C-B064-CA088DD9CA93</title><desc>Created with sketchtool.</desc><g id="Symbols" fill="none" fill-rule="evenodd" stroke="none" stroke-width="1"><g id="ic-scissors-white-16"><g><rect id="bounds" width="16" height="16" x="0" y="0"/><polygon id="Line-2" fill="#FFF" fill-rule="nonzero" points=".086 1.5 1.5 .086 12.414 11 11 12.414"/><polygon id="Line-2" fill="#FFF" fill-rule="nonzero" points="14.526 .043 15.941 1.456 5.001 12.414 3.586 11.001"/><path id="Combined-Shape" fill="#FFF" d="M3,16 C1.34314575,16 0,14.6568542 0,13 C0,11.3431458 1.34314575,10 3,10 C4.65685425,10 6,11.3431458 6,13 C6,14.6568542 4.65685425,16 3,16 Z M3,14 C3.55228475,14 4,13.5522847 4,13 C4,12.4477153 3.55228475,12 3,12 C2.44771525,12 2,12.4477153 2,13 C2,13.5522847 2.44771525,14 3,14 Z"/><path id="Combined-Shape" fill="#FFF" d="M13,16 C11.3431458,16 10,14.6568542 10,13 C10,11.3431458 11.3431458,10 13,10 C14.6568542,10 16,11.3431458 16,13 C16,14.6568542 14.6568542,16 13,16 Z M13,14 C13.5522847,14 14,13.5522847 14,13 C14,12.4477153 13.5522847,12 13,12 C12.4477153,12 12,12.4477153 12,13 C12,13.5522847 12.4477153,14 13,14 Z"/></g></g></g></svg>