<svg xmlns="http://www.w3.org/2000/svg" xmlns:xlink="http://www.w3.org/1999/xlink" width="16" height="16" version="1.1" viewBox="0 0 16 16"><title>ic-undo</title><desc>Created with Sketch.</desc><defs><path id="path-1" d="M7.995,1.00000584 C5.87352516,0.997437551 3.83872761,1.84152038 2.342,3.34500584 L0,1.00000584 L0,7.00000584 L6,7.00000584 L3.759,4.75700584 C5.30566694,3.20281714 7.57695049,2.61607955 9.68285105,3.22670545 C11.7887516,3.83733135 13.3938612,5.54806601 13.8692197,7.68856022 C14.3445782,9.82905443 13.6144749,12.0583905 11.965,13.5030058 L13.287,15.0030058 C15.7847745,12.8026937 16.6590791,9.28563699 15.4823293,6.17187541 C14.3055796,3.05811384 11.3237007,0.998382235 7.995,1.00000584 L7.995,1.00000584 Z"/><filter id="filter-2" width="200%" height="200%" x="-50%" y="-50%" filterUnits="objectBoundingBox"><feGaussianBlur in="SourceAlpha" result="shadowBlurInner1" stdDeviation="1.5"/><feOffset dx="0" dy="1" in="shadowBlurInner1" result="shadowOffsetInner1"/><feComposite in="shadowOffsetInner1" in2="SourceAlpha" k2="-1" k3="1" operator="arithmetic" result="shadowInnerInner1"/><feColorMatrix in="shadowInnerInner1" type="matrix" values="0 0 0 0 0 0 0 0 0 0 0 0 0 0 0 0 0 0 0.5 0"/></filter></defs><g id="icons" fill="none" fill-rule="evenodd" stroke="none" stroke-width="1"><g id="ic-undo"><g transform="translate(-335.000000, -74.000000) translate(335.000000, 74.000000)"><rect id="bounds" width="16" height="16" x="0" y="0"/><g id="Shape"><use fill="#6D6C6D" fill-rule="evenodd" xlink:href="#path-1"/><use fill="#000" fill-opacity="1" filter="url(#filter-2)" xlink:href="#path-1"/></g></g></g></g></svg>